<?xml version="1.0" encoding="UTF-8" standalone="no"?>
<svg
   width="48"
   height="48"
   viewBox="0 0 12.7 12.7"
   version="1.1">
  <g
     transform="translate(0,-284.29998)"
     style="fill:#fff;">
    <path
       d="M 16,1 H 8 C 6.34,1 5,2.34 5,4 v 16 c 0,1.66 1.34,3 3,3 h 8 c 1.66,0 3,-1.34 3,-3 V 4 C 19,2.34 17.66,1 16,1 Z m -2,20 h -4 v -1 h 4 z m 3.25,-3 H 6.75 V 4 h 10.5 z"
       transform="matrix(0.51954393,0,0,0.51954393,-1.9546634,283.8984)" />
    <path
       d="M 20,5 H 4 C 2.9,5 2.01,5.9 2.01,7 L 2,17 c 0,1.1 0.9,2 2,2 h 16 c 1.1,0 2,-0.9 2,-2 V 7 C 22,5.9 21.1,5 20,5 Z m -9,3 h 2 v 2 h -2 z m 0,3 h 2 v 2 H 11 Z M 8,8 h 2 v 2 H 8 Z m 0,3 h 2 v 2 H 8 Z M 7,13 H 5 V 11 H 7 Z M 7,10 H 5 V 8 h 2 z m 9,7 H 8 v -2 h 8 z m 0,-4 h -2 v -2 h 2 z m 0,-3 H 14 V 8 h 2 z m 3,3 h -2 v -2 h 2 z m 0,-3 H 17 V 8 h 2 z"
       transform="matrix(0.24314962,0,0,0.24314962,1.3574295,287.60014)" />
    <g transform="matrix(0.13859127,0,0,0.13859127,-96.605993,185.37418)">
      <path
         d="m 778.41219,751.35301 v 7.85452 h 1.96363 v 3.92725 h -5.89088 v -15.70904 h 3.92725 l -5.89089,-7.85453 -5.89089,7.85453 h 3.92725 v 15.70904 h -5.89089 v -4.06472 c 1.37454,-0.72653 2.35637,-2.12071 2.35637,-3.7898 0,-2.37599 -1.944,-4.31999 -4.31999,-4.31999 -2.37599,0 -4.31998,1.944 -4.31998,4.31999 0,1.66909 0.9818,3.06327 2.35635,3.7898 v 4.06472 c 0,2.17964 1.74763,3.92728 3.92725,3.92728 h 5.89089 v 5.98905 h 3.92728 v -5.98905 h 5.89088 c 2.17964,0 3.92727,-1.74764 3.92727,-3.92728 v -3.92725 h 1.96362 v -7.85452 z"
         style="stroke-width:1.96363056;" />
      <path
         style="stroke-width:1.96363044;"
         d="m 770.55433,797.18576 v 3.92725 h -5.89088 v 3.92728 h 5.89088 c 2.17963,0 3.92726,-1.74764 3.92726,-3.92728 v -3.92725 z" />
      <rect
         width="3.9238393"
         height="24.134678"
         x="770.55786"
         y="773.05121" />
      <rect
         width="3.9238391"
         height="29.9921"
         x="801.11304"
         y="-764.66333"
         transform="rotate(90)" />
      <path
         style="stroke-width:1.96363044;"
         d="m 734.67134,801.10961 h -3.92726 v -5.89089 h -3.92726 v 5.89089 c 0,2.17964 1.74763,3.92727 3.92726,3.92727 h 3.92726 z" />
    </g>
  </g>
</svg>
